<?xml version="1.0" encoding="UTF-8" standalone="no"?>
<!DOCTYPE svg PUBLIC "-//W3C//DTD SVG 1.1//EN" "http://www.w3.org/Graphics/SVG/1.1/DTD/svg11.dtd">
<svg width="100%" height="100%" viewBox="0 0 462 462" version="1.1" xmlns="http://www.w3.org/2000/svg" xmlns:xlink="http://www.w3.org/1999/xlink" xml:space="preserve" xmlns:serif="http://www.serif.com/" style="fill-rule:evenodd;clip-rule:evenodd;stroke-linejoin:round;stroke-miterlimit:2;">
    <g transform="matrix(1,0,0,1,-169,-95)">
        <path d="M429.826,155.285C455.384,159.733 479.025,169.797 499.432,184.157L531.724,151.865L573.904,194.045L541.612,226.337C555.974,246.745 566.037,270.387 570.484,295.943L616.112,295.943L616.112,355.594L570.484,355.594C566.035,381.153 555.972,404.794 541.612,425.2L573.904,457.493L531.724,499.672L499.432,467.38C479.023,481.742 455.381,491.805 429.826,496.252L429.826,541.88L370.174,541.88L370.174,496.252C344.616,491.804 320.975,481.74 300.568,467.38L268.276,499.672L226.096,457.493L258.388,425.2C244.026,404.792 233.963,381.15 229.516,355.594L183.888,355.594L183.888,295.943L229.516,295.943C233.965,270.384 244.028,246.743 258.388,226.337L226.096,194.045L268.276,151.865L300.568,184.157C320.977,169.795 344.619,159.732 370.174,155.285L370.174,109.657L429.826,109.657L429.826,155.285ZM400,220.591C458.049,220.591 505.178,267.719 505.178,325.769C505.178,383.818 458.049,430.946 400,430.946C341.951,430.946 294.822,383.818 294.822,325.769C294.822,267.719 341.951,220.591 400,220.591Z" style="fill:rgb(252,255,252);"/>
    </g>
</svg>
