<?xml version="1.0" encoding="UTF-8" standalone="no"?>
<!DOCTYPE svg PUBLIC "-//W3C//DTD SVG 1.1//EN" "http://www.w3.org/Graphics/SVG/1.1/DTD/svg11.dtd">
<svg width="100%" height="100%" viewBox="0 0 379 181" version="1.1" xmlns="http://www.w3.org/2000/svg" xmlns:xlink="http://www.w3.org/1999/xlink" xml:space="preserve" xmlns:serif="http://www.serif.com/" style="fill-rule:evenodd;clip-rule:evenodd;stroke-linejoin:round;stroke-miterlimit:2;">
    <g transform="matrix(1,0,0,1,-31,-358)">
        <path d="M387.186,448.387C387.186,410.7 356.634,380.149 318.948,380.149L121.515,380.149C83.828,380.149 53.277,410.7 53.277,448.387L53.277,448.39C53.277,486.076 83.828,516.628 121.515,516.628L318.948,516.628C356.634,516.628 387.186,486.076 387.186,448.39L387.186,448.387ZM292.523,438.663L292.523,422.908C292.523,417.54 296.88,413.183 302.248,413.183C307.615,413.183 311.973,417.54 311.973,422.908L311.973,438.663L327.728,438.663C333.096,438.663 337.453,443.021 337.453,448.388C337.453,453.756 333.096,458.113 327.728,458.113L311.973,458.113L311.973,473.869C311.973,479.236 307.615,483.594 302.248,483.594C296.88,483.594 292.523,479.236 292.523,473.869L292.523,458.113L276.767,458.113C271.4,458.113 267.042,453.756 267.042,448.388C267.042,443.021 271.4,438.663 276.767,438.663L292.523,438.663ZM181.712,424.959C183.097,422.092 186.013,420.262 189.197,420.262C192.381,420.262 195.297,422.092 196.682,424.959C200.805,425.278 204.896,425.914 208.92,426.861C212.214,425.41 215.775,424.66 219.374,424.66C233.598,424.66 245.301,436.364 245.301,450.587C245.301,464.81 233.598,476.514 219.374,476.514C208.795,476.514 199.231,470.038 195.302,460.215C193.31,460.345 191.271,460.413 189.198,460.413C186.999,460.413 184.823,460.336 182.71,460.193C178.553,469.531 169.245,475.576 159.024,475.576C144.801,475.576 133.097,463.872 133.097,449.649C133.097,435.426 144.801,423.723 159.024,423.723C163.119,423.723 167.156,424.693 170.804,426.553C174.4,425.777 178.044,425.245 181.712,424.959ZM159.015,433.688C168.288,433.688 175.918,441.319 175.918,450.592C175.918,459.865 168.288,467.495 159.015,467.495C149.742,467.495 142.111,459.865 142.111,450.592C142.115,441.32 149.743,433.692 159.015,433.688ZM219.379,433.688C228.652,433.688 236.283,441.319 236.283,450.592C236.283,459.865 228.652,467.495 219.379,467.495C210.106,467.495 202.476,459.865 202.476,450.592C202.48,441.32 210.108,433.692 219.379,433.688Z" style="fill:rgb(36,130,50);"/>
    </g>
</svg>
