<?xml version="1.0" encoding="UTF-8" standalone="no"?>
<!DOCTYPE svg PUBLIC "-//W3C//DTD SVG 1.1//EN" "http://www.w3.org/Graphics/SVG/1.1/DTD/svg11.dtd">
<svg width="100%" height="100%" viewBox="0 0 379 181" version="1.1" xmlns="http://www.w3.org/2000/svg" xmlns:xlink="http://www.w3.org/1999/xlink" xml:space="preserve" xmlns:serif="http://www.serif.com/" style="fill-rule:evenodd;clip-rule:evenodd;stroke-linejoin:round;stroke-miterlimit:2;">
    <g transform="matrix(1,0,0,1,-31,-156)">
        <path d="M387.186,246.756C387.186,209.07 356.634,178.518 318.948,178.518L121.515,178.518C83.828,178.518 53.277,209.07 53.277,246.756L53.277,246.759C53.277,284.446 83.828,314.997 121.515,314.997L318.948,314.997C356.634,314.997 387.186,284.446 387.186,246.759L387.186,246.756ZM158.392,228.558L158.392,213.487C158.392,210.788 160.613,208.568 163.311,208.568L204.589,208.568C207.288,208.568 209.509,210.788 209.509,213.487L209.509,228.558L225.598,228.558C230.648,228.558 234.804,232.714 234.804,237.764L234.804,275.743C234.804,275.743 234.804,275.744 234.804,275.745C234.804,280.794 230.649,284.948 225.601,284.948C225.6,284.948 225.599,284.948 225.598,284.948L142.303,284.948C137.252,284.948 133.097,280.793 133.097,275.743L133.097,237.762C133.097,232.712 137.252,228.556 142.303,228.556L158.392,228.558ZM292.523,237.033L292.523,221.278C292.523,215.91 296.88,211.552 302.248,211.552C307.615,211.552 311.973,215.91 311.973,221.278L311.973,237.033L327.728,237.033C333.096,237.033 337.453,241.39 337.453,246.758C337.453,252.125 333.096,256.483 327.728,256.483L311.973,256.483L311.973,272.238C311.973,277.606 307.615,281.964 302.248,281.964C296.88,281.964 292.523,277.606 292.523,272.238L292.523,256.483L276.767,256.483C271.4,256.483 267.042,252.125 267.042,246.758C267.042,241.39 271.4,237.033 276.767,237.033L292.523,237.033ZM199.67,228.558L199.67,218.415L168.228,218.415L168.228,228.568L199.67,228.558Z" style="fill:rgb(36,130,50);"/>
    </g>
</svg>
