<?xml version="1.0" encoding="UTF-8" standalone="no"?>
<!DOCTYPE svg PUBLIC "-//W3C//DTD SVG 1.1//EN" "http://www.w3.org/Graphics/SVG/1.1/DTD/svg11.dtd">
<svg width="100%" height="100%" viewBox="0 0 265 264" version="1.1" xmlns="http://www.w3.org/2000/svg" xmlns:xlink="http://www.w3.org/1999/xlink" xml:space="preserve" xmlns:serif="http://www.serif.com/" style="fill-rule:evenodd;clip-rule:evenodd;stroke-linejoin:round;stroke-miterlimit:2;">
    <g transform="matrix(1,0,0,1,-251,-168)">
        <g transform="matrix(1,0,0,1,-16.7997,0)">
            <path d="M400,168.027C472.838,168.027 531.973,227.162 531.973,300C531.973,372.838 472.838,431.973 400,431.973C327.162,431.973 268.027,372.838 268.027,300C268.027,227.162 327.162,168.027 400,168.027ZM360.375,300L329.497,269.123C318.556,258.181 318.556,240.441 329.497,229.499C329.498,229.499 329.499,229.498 329.499,229.497C340.441,218.556 358.181,218.556 369.123,229.497L400,260.375L430.877,229.497C441.819,218.556 459.559,218.556 470.501,229.497C470.501,229.498 470.502,229.499 470.503,229.499C481.444,240.441 481.444,258.181 470.503,269.123L439.625,300L470.503,330.877C481.444,341.819 481.444,359.559 470.503,370.501C470.502,370.501 470.501,370.502 470.501,370.503C459.559,381.444 441.819,381.444 430.877,370.503L400,339.625L369.123,370.503C358.181,381.444 340.441,381.444 329.499,370.503C329.499,370.502 329.498,370.501 329.497,370.501C318.556,359.559 318.556,341.819 329.497,330.877L360.375,300Z" style="fill:rgb(36,130,50);"/>
        </g>
    </g>
</svg>
