<?xml version="1.0" encoding="UTF-8" standalone="no"?>
<!DOCTYPE svg PUBLIC "-//W3C//DTD SVG 1.1//EN" "http://www.w3.org/Graphics/SVG/1.1/DTD/svg11.dtd">
<svg width="100%" height="100%" viewBox="0 0 205 205" version="1.1" xmlns="http://www.w3.org/2000/svg" xmlns:xlink="http://www.w3.org/1999/xlink" xml:space="preserve" xmlns:serif="http://www.serif.com/" style="fill-rule:evenodd;clip-rule:evenodd;stroke-linejoin:round;stroke-miterlimit:2;">
    <g transform="matrix(1,0,0,1,-188,-63)">
        <g transform="matrix(0.39727,0,0,0.39727,128.976,44.0809)">
            <path d="M406.122,104.398C517.021,104.398 607.058,194.435 607.058,305.335C607.058,416.235 517.021,506.271 406.122,506.271C295.222,506.271 205.185,416.235 205.185,305.335C205.185,194.435 295.222,104.398 406.122,104.398ZM371.275,461.204C368.307,461.204 365.709,460.091 363.482,457.864C361.255,455.638 360.142,453.04 360.142,450.071L360.142,392.622C360.142,389.356 361.255,386.61 363.482,384.383C365.709,382.156 368.307,381.043 371.275,381.043L428.725,381.043C431.693,381.043 434.291,382.156 436.518,384.383C438.745,386.61 439.858,389.356 439.858,392.622L439.858,450.071C439.858,453.04 438.819,455.638 436.741,457.864C434.662,460.091 431.99,461.204 428.725,461.204L371.275,461.204ZM373.057,360.557C369.791,360.557 367.045,359.444 364.818,357.217C362.591,354.99 361.478,352.244 361.478,348.978L361.478,160.599C361.478,157.333 362.591,154.661 364.818,152.583C367.045,150.504 369.791,149.465 373.057,149.465L426.943,149.465C430.209,149.465 432.955,150.504 435.182,152.583C437.409,154.661 438.522,157.333 438.522,160.599L438.522,348.978C438.522,352.244 437.409,354.99 435.182,357.217C432.955,359.444 430.209,360.557 426.943,360.557L373.057,360.557Z" style="fill:rgb(168,44,51);"/>
        </g>
    </g>
</svg>
