<?xml version="1.0" encoding="UTF-8" standalone="no"?>
<!DOCTYPE svg PUBLIC "-//W3C//DTD SVG 1.1//EN" "http://www.w3.org/Graphics/SVG/1.1/DTD/svg11.dtd">
<svg width="100%" height="100%" viewBox="0 0 392 268" version="1.1" xmlns="http://www.w3.org/2000/svg" xmlns:xlink="http://www.w3.org/1999/xlink" xml:space="preserve" xmlns:serif="http://www.serif.com/" style="fill-rule:evenodd;clip-rule:evenodd;stroke-linejoin:round;stroke-miterlimit:2;">
    <g transform="matrix(1,0,0,1,-194,-188)">
        <g>
            <g transform="matrix(1,0,0,1,-58.6572,13.741)">
                <path d="M644.638,205.521C644.638,197.39 641.408,189.592 635.659,183.843C629.909,178.093 622.111,174.863 613.98,174.863L283.59,174.863C275.459,174.863 267.661,178.093 261.911,183.843C256.162,189.592 252.932,197.39 252.932,205.521L252.932,205.523C252.932,213.654 256.162,221.452 261.911,227.202C267.661,232.951 275.459,236.181 283.59,236.181L613.98,236.181C622.111,236.181 629.909,232.951 635.659,227.202C641.408,221.452 644.638,213.654 644.638,205.523L644.638,205.521Z" style="fill:rgb(252,255,252);"/>
            </g>
            <g transform="matrix(1,0,0,1,-58.6572,116.32)">
                <path d="M644.638,205.521C644.638,197.39 641.408,189.592 635.659,183.843C629.909,178.093 622.111,174.863 613.98,174.863L283.59,174.863C275.459,174.863 267.661,178.093 261.911,183.843C256.162,189.592 252.932,197.39 252.932,205.521L252.932,205.523C252.932,213.654 256.162,221.452 261.911,227.202C267.661,232.951 275.459,236.181 283.59,236.181L613.98,236.181C622.111,236.181 629.909,232.951 635.659,227.202C641.408,221.452 644.638,213.654 644.638,205.523L644.638,205.521Z" style="fill:rgb(252,255,252);"/>
            </g>
            <g transform="matrix(1,0,0,1,-58.6572,218.899)">
                <path d="M644.638,205.521C644.638,197.39 641.408,189.592 635.659,183.843C629.909,178.093 622.111,174.863 613.98,174.863L283.59,174.863C275.459,174.863 267.661,178.093 261.911,183.843C256.162,189.592 252.932,197.39 252.932,205.521L252.932,205.523C252.932,213.654 256.162,221.452 261.911,227.202C267.661,232.951 275.459,236.181 283.59,236.181L613.98,236.181C622.111,236.181 629.909,232.951 635.659,227.202C641.408,221.452 644.638,213.654 644.638,205.523L644.638,205.521Z" style="fill:rgb(252,255,252);"/>
            </g>
        </g>
    </g>
</svg>
