<svg xmlns="http://www.w3.org/2000/svg" width="805" height="510" viewBox="0 0 805 510"><g transform="translate(-968 -285)"><line x2="695.287" transform="translate(1077.713 763.5)" fill="none" stroke="#2d3a3a" stroke-width="1"/><text transform="translate(980 745)" fill="#2d3a3a" font-size="21" font-family="Rubik-Regular, Rubik"><tspan x="0" y="0">$9.00</tspan></text><text transform="translate(980 657)" fill="#2d3a3a" font-size="21" font-family="Rubik-Regular, Rubik"><tspan x="0" y="0">$9.50</tspan></text><text transform="translate(968 569)" fill="#2d3a3a" font-size="21" font-family="Rubik-Regular, Rubik"><tspan x="0" y="0">$10.00</tspan></text><text transform="translate(968 481)" fill="#2d3a3a" font-size="21" font-family="Rubik-Regular, Rubik"><tspan x="0" y="0">$10.50</tspan></text><text transform="translate(968 393)" fill="#2d3a3a" font-size="21" font-family="Rubik-Regular, Rubik"><tspan x="0" y="0">$11.00</tspan></text><text transform="translate(968 305)" fill="#2d3a3a" font-size="21" font-family="Rubik-Regular, Rubik"><tspan x="0" y="0">$11.50</tspan></text><path d="M968.5,623l168.339-93.657,145.451,52.638,130.648-104.794,123.054-130.4,112.489-115.872" transform="translate(109.213 102)" fill="none" stroke="#2ba84a" stroke-width="3"/><text transform="translate(1061 790)" fill="#2d3a3a" font-size="21" font-family="Rubik-Regular, Rubik"><tspan x="0" y="0">5-Mar</tspan></text><text transform="translate(1221 790)" fill="#2d3a3a" font-size="21" font-family="Rubik-Regular, Rubik"><tspan x="0" y="0">6-Mar</tspan></text><text transform="translate(1380 790)" fill="#2d3a3a" font-size="21" font-family="Rubik-Regular, Rubik"><tspan x="0" y="0">7-Mar</tspan></text><text transform="translate(1537 790)" fill="#2d3a3a" font-size="21" font-family="Rubik-Regular, Rubik"><tspan x="0" y="0">8-Mar</tspan></text><text transform="translate(1698 790)" fill="#2d3a3a" font-size="21" font-family="Rubik-Regular, Rubik"><tspan x="0" y="0">9-Mar</tspan></text></g></svg>