<?xml version="1.0" encoding="UTF-8" standalone="no"?>
<!DOCTYPE svg PUBLIC "-//W3C//DTD SVG 1.1//EN" "http://www.w3.org/Graphics/SVG/1.1/DTD/svg11.dtd">
<svg width="100%" height="100%" viewBox="0 0 379 181" version="1.1" xmlns="http://www.w3.org/2000/svg" xmlns:xlink="http://www.w3.org/1999/xlink" xml:space="preserve" xmlns:serif="http://www.serif.com/" style="fill-rule:evenodd;clip-rule:evenodd;stroke-linejoin:round;stroke-miterlimit:2;">
    <g transform="matrix(1,0,0,1,-405,-358)">
        <path d="M761.483,448.387C761.483,410.7 730.932,380.149 693.245,380.149L495.813,380.149C458.126,380.149 427.575,410.7 427.575,448.387L427.575,448.39C427.575,486.076 458.126,516.628 495.813,516.628L693.245,516.628C730.932,516.628 761.483,486.076 761.483,448.39L761.483,448.387ZM556.009,424.959C557.395,422.092 560.31,420.262 563.495,420.262C566.679,420.262 569.595,422.092 570.98,424.959C575.102,425.278 579.194,425.914 583.218,426.861C586.512,425.41 590.073,424.66 593.672,424.66C607.895,424.66 619.599,436.364 619.599,450.587C619.599,464.81 607.895,476.514 593.672,476.514C583.093,476.514 573.528,470.038 569.599,460.215C567.607,460.345 565.569,460.413 563.496,460.413C561.297,460.413 559.12,460.336 557.008,460.193C552.851,469.531 543.543,475.576 533.321,475.576C519.098,475.576 507.395,463.872 507.395,449.649C507.395,435.426 519.098,423.723 533.321,423.723C537.416,423.723 541.454,424.693 545.102,426.553C548.698,425.777 552.342,425.245 556.009,424.959ZM533.312,433.688C542.585,433.688 550.216,441.319 550.216,450.592C550.216,459.865 542.585,467.495 533.312,467.495C524.039,467.495 516.409,459.865 516.409,450.592C516.412,441.32 524.041,433.692 533.312,433.688ZM593.677,433.688C602.95,433.688 610.581,441.319 610.581,450.592C610.581,459.865 602.95,467.495 593.677,467.495C584.404,467.495 576.774,459.865 576.774,450.592C576.777,441.32 584.406,433.692 593.677,433.688ZM702.026,438.663L651.065,438.663C645.698,438.663 641.34,443.021 641.34,448.388C641.34,453.756 645.698,458.113 651.065,458.113L702.026,458.113C707.393,458.113 711.751,453.756 711.751,448.388C711.751,443.021 707.393,438.663 702.026,438.663Z" style="fill:rgb(36,130,50);"/>
    </g>
</svg>
