<?xml version="1.0" encoding="UTF-8" standalone="no"?>
<!DOCTYPE svg PUBLIC "-//W3C//DTD SVG 1.1//EN" "http://www.w3.org/Graphics/SVG/1.1/DTD/svg11.dtd">
<svg width="100%" height="100%" viewBox="0 0 379 181" version="1.1" xmlns="http://www.w3.org/2000/svg" xmlns:xlink="http://www.w3.org/1999/xlink" xml:space="preserve" xmlns:serif="http://www.serif.com/" style="fill-rule:evenodd;clip-rule:evenodd;stroke-linejoin:round;stroke-miterlimit:2;">
    <g transform="matrix(1,0,0,1,-405,-156)">
        <path d="M761.483,246.756C761.483,209.07 730.932,178.518 693.245,178.518L495.813,178.518C458.126,178.518 427.575,209.07 427.575,246.756L427.575,246.759C427.575,284.446 458.126,314.997 495.813,314.997L693.245,314.997C730.932,314.997 761.483,284.446 761.483,246.759L761.483,246.756ZM532.69,228.558L532.69,213.487C532.69,210.788 534.911,208.568 537.609,208.568L578.887,208.568C581.586,208.568 583.806,210.788 583.806,213.487L583.806,228.558L599.896,228.558C604.946,228.558 609.102,232.714 609.102,237.764L609.102,275.743C609.102,275.743 609.102,275.744 609.102,275.745C609.102,280.794 604.947,284.948 599.898,284.948C599.898,284.948 599.897,284.948 599.896,284.948L516.6,284.948C511.55,284.948 507.395,280.793 507.395,275.743L507.395,237.762C507.395,232.712 511.55,228.556 516.6,228.556L532.69,228.558ZM702.026,237.033L651.065,237.033C645.698,237.033 641.34,241.39 641.34,246.758C641.34,252.125 645.698,256.483 651.065,256.483L702.026,256.483C707.393,256.483 711.751,252.125 711.751,246.758C711.751,241.39 707.393,237.033 702.026,237.033ZM573.968,228.558L573.968,218.415L542.526,218.415L542.526,228.568L573.968,228.558Z" style="fill:rgb(36,130,50);"/>
    </g>
</svg>
