<svg xmlns="http://www.w3.org/2000/svg" width="61.98" height="64.929" viewBox="0 0 61.98 64.929"><g transform="translate(-235.885 -259.645)"><g transform="translate(297.865 324.574) rotate(180)"><path d="M51.459,19.523V4.49A4.49,4.49,0,0,0,46.969,0H4.49A4.49,4.49,0,0,0,0,4.49V60.439a4.49,4.49,0,0,0,4.49,4.49H46.969a4.49,4.49,0,0,0,4.49-4.49V46.032h-8.98v9.917H8.98V8.98h33.5V19.523Z" transform="translate(0)" fill="#fcfffc" fill-rule="evenodd"/></g><g transform="translate(235.885 285.997)"><rect width="28.01" height="12.225" transform="translate(0 0)" fill="#fcfffc"/></g><g transform="translate(284.175 280.069) rotate(90)"><path d="M12.04,0,24.08,24.08H0Z" transform="translate(0 0)" fill="#fcfffc" fill-rule="evenodd"/></g></g></svg>