<svg xmlns="http://www.w3.org/2000/svg" width="51.039" height="25.585" viewBox="0 0 51.039 25.585"><path d="M168.423,332.63a3.781,3.781,0,0,1,6.809,0,36.613,36.613,0,0,1,5.566.865,11.792,11.792,0,1,1-6.194,15.17c-.906.059-1.833.09-2.776.09-1,0-1.99-.035-2.951-.1a11.792,11.792,0,1,1-5.415-15.3A37.206,37.206,0,0,1,168.423,332.63ZM158.1,336.6a7.688,7.688,0,1,1-7.688,7.688A7.691,7.691,0,0,1,158.1,336.6Zm27.455,0a7.688,7.688,0,1,1-7.688,7.688A7.691,7.691,0,0,1,185.555,336.6Z" transform="translate(-146.308 -330.493)" fill="#2d3a3a" fill-rule="evenodd"/></svg>